Coordinates
version=1
nRows=14
nColumns=24
inDegrees=yes

Units are S.I. units (second, meters, Newtons, ...)
Angles are in degrees.

endheader
time	pelvis_tilt	pelvis_list	pelvis_rotation	pelvis_tx	pelvis_ty	pelvis_tz	hip_flexion_r	hip_adduction_r	hip_rotation_r	knee_angle_r	ankle_angle_r	subtalar_angle_r	mtp_angle_r	hip_flexion_l	hip_adduction_l	hip_rotation_l	knee_angle_l	ankle_angle_l	subtalar_angle_l	mtp_angle_l	lumbar_extension	lumbar_bending	lumbar_rotation
      0.69983333	     -2.71004778	      1.50027894	      1.41177062	     -0.41195945	      1.00180173	      0.28434027	     11.51147572	      1.95947074	      1.76806925	    -23.74656734	     16.56844227	     -4.76338275	     -0.77317925	     15.98027660	      0.03183018	     -1.87497137	    -67.45683677	    -10.23664791	     -0.76206317	      9.57931479	    -11.35213384	      4.92722098	     -1.43313617
      0.70400000	     -2.67256352	      1.61465642	      1.35696801	     -0.40713290	      1.00276480	      0.28447457	     10.99890118	      1.86171889	      1.83246397	    -23.37246100	     16.46410312	     -4.86295692	     -0.79388754	     16.36406424	      0.12530980	     -1.92168456	    -67.26773564	     -9.44656738	     -1.19486781	      9.48901183	    -11.46650998	      4.66927322	     -0.94571783
      0.70816667	     -2.69513752	      1.73717772	      1.30580847	     -0.40230614	      1.00361642	      0.28455119	     10.57355657	      1.73944302	      1.84720591	    -23.04623450	     16.37710256	     -4.86132195	     -0.80050452	     16.80693484	      0.23470058	     -1.97191963	    -67.03492552	     -8.60857437	     -1.61314049	      9.46903513	    -11.46047314	      4.49413083	     -0.83014800
      0.71233333	     -2.65379639	      1.84013406	      1.23061849	     -0.39746320	      1.00459513	      0.28470783	     10.04971376	      1.65499300	      1.93623298	    -22.64872847	     16.22942382	     -4.97636130	     -0.81327908	     17.16003222	      0.30662703	     -2.04360747	    -66.72543409	     -7.77145217	     -1.98875767	      9.35943174	    -11.57883111	      4.24857705	     -0.33462488
      0.71650000	     -2.64850620	      1.98146650	      1.15490271	     -0.39262708	      1.00552207	      0.28480529	      9.58615703	      1.51469100	      1.98690741	    -22.29796839	     16.10607090	     -5.01115999	     -0.81806830	     17.53832706	      0.43309652	     -2.11985280	    -66.35154842	     -6.93795099	     -2.38699198	      9.24371250	    -11.62384249	      4.00561666	     -0.03419030
      0.72066667	     -2.63922135	      2.09760231	      1.07677016	     -0.38778341	      1.00645756	      0.28490744	      9.11058317	      1.40158769	      2.04546288	    -21.92627482	     15.95323689	     -5.05373915	     -0.81797373	     17.90225256	      0.52529455	     -2.20206462	    -65.92634297	     -6.09512187	     -2.74558606	      9.12069312	    -11.67932376	      3.79503791	      0.26533847
      0.72483333	     -2.61769256	      2.22078032	      0.99287108	     -0.38293524	      1.00740628	      0.28499728	      8.62448114	      1.27678422	      2.10011776	    -21.55780265	     15.79188028	     -5.08226407	     -0.81206425	     18.23819834	      0.62705007	     -2.28941647	    -65.43889886	     -5.26593173	     -3.10383651	      8.98894605	    -11.74423497	      3.57904211	      0.55275914
      0.72900000	     -2.60066157	      2.35297325	      0.90357598	     -0.37809034	      1.00833420	      0.28507781	      8.15078169	      1.13873124	      2.15546605	    -21.20345875	     15.62989883	     -5.09189972	     -0.79859471	     18.56565463	      0.73969476	     -2.38443282	    -64.89294924	     -4.45413067	     -3.45513808	      8.83127815	    -11.80637838	      3.34311510	      0.85060945
      0.73316667	     -2.59256378	      2.47355073	      0.80116213	     -0.37324805	      1.00925066	      0.28517014	      7.68619414	      1.01555134	      2.24390032	    -20.84226558	     15.44315594	     -5.14994065	     -0.41425136	     18.89105582	      0.83600352	     -2.49006685	    -64.30165050	     -3.59048374	     -3.74990492	      6.13496643	    -11.85507442	      3.13984871	      1.11195261
      0.73733333	     -2.55528218	      2.61524973	      0.72372116	     -0.36838542	      1.01020868	      0.28517656	      7.19172965	      0.85079500	      2.24951365	    -20.48730328	     15.26266948	     -5.09060338	     -0.40762521	     19.16497990	      0.97518911	     -2.56155309	    -63.62993869	     -2.83617536	     -4.08021486	      6.12208345	    -11.93201242	      2.91737204	      1.35434838
      0.74150000	     -2.52197416	      2.73447239	      0.63236640	     -0.36352107	      1.01114381	      0.28521238	      6.69975235	      0.71561478	      2.29616927	    -20.12328981	     15.06625262	     -5.07968623	     -0.39539008	     19.43189199	      1.08048961	     -2.64933322	    -62.91280798	     -2.09853185	     -4.39678702	      6.08653461	    -12.00513243	      2.70993776	      1.62461422
      0.74566667	     -2.55751922	      2.85525987	      0.54809364	     -0.35868012	      1.01194466	      0.28521068	      6.30590390	      0.57197145	      2.32053195	    -19.80925400	     14.87086120	     -5.02527527	     -0.39021617	     19.76883824	      1.19556766	     -2.72927751	    -62.15840819	     -1.37425961	     -4.71587244	      6.06940197	    -11.99705168	      2.52470964	      1.74532085
      0.74983333	     -2.47184365	      2.99041596	      0.45314913	     -0.35377837	      1.01294440	      0.28521965	      5.75037548	      0.41440724	      2.37304411	    -19.43144326	     14.67362645	     -5.02497524	     -0.36496089	     19.93773382	      1.32754160	     -2.80895548	    -61.30661018	     -0.74478641	     -5.01311886	      5.98656581	    -12.13214004	      2.28896180	      2.11687932
      0.75400000	     -2.43570325	      3.12227084	      0.36576275	     -0.34889973	      1.01384183	      0.28518576	      5.26771943	      0.25268539	      2.39998796	    -19.09063253	     14.46431743	     -4.99304489	     -0.33401407	     20.15400922	      1.46375366	     -2.87779226	    -60.41761586	     -0.12637884	     -5.31353752	      5.88911509	    -12.20233760	      2.07914638	      2.36829870
